<?xml version="1.0" standalone="no"?>
<!DOCTYPE svg PUBLIC "-//W3C//DTD SVG 20010904//EN"
 "http://www.w3.org/TR/2001/REC-SVG-20010904/DTD/svg10.dtd">
<svg version="1.0" xmlns="http://www.w3.org/2000/svg"
 width="218.000000pt" height="512.000000pt" viewBox="0 0 218.000000 512.000000"
 preserveAspectRatio="xMidYMid meet">
<metadata>
Created by potrace 1.16, written by Peter Selinger 2001-2019
</metadata>
<g transform="translate(0.000000,512.000000) scale(0.100000,-0.100000)"
fill="#000000" stroke="none">
<path d="M930 5081 c-104 -47 -239 -169 -317 -286 l-36 -55 15 -53 14 -52 -61
-70 c-145 -166 -144 -165 -230 -465 -55 -196 -80 -340 -71 -429 10 -111 23
-174 42 -208 19 -33 37 -44 32 -20 -1 6 2 23 6 36 7 22 11 18 35 -40 25 -61
30 -66 91 -96 35 -18 65 -31 67 -30 1 2 -5 29 -13 61 -8 32 -13 61 -10 64 3 3
29 -11 58 -30 29 -19 71 -41 92 -48 37 -12 38 -14 20 -26 -10 -8 -28 -22 -39
-32 -11 -11 -35 -27 -54 -37 -19 -9 -45 -31 -59 -49 -14 -17 -52 -56 -84 -86
-53 -51 -57 -58 -44 -75 12 -17 11 -22 -6 -45 -10 -14 -25 -47 -33 -73 l-14
-47 39 0 c47 0 49 -7 25 -109 -17 -69 -55 -144 -113 -219 -69 -89 -222 -402
-222 -454 0 -21 20 -3 54 47 37 56 56 69 56 38 1 -10 11 -48 24 -85 20 -59 21
-70 9 -99 -16 -38 -8 -148 15 -194 39 -81 142 -145 142 -89 0 8 5 14 10 14 6
0 10 -28 10 -62 1 -167 20 -471 34 -539 15 -71 78 -290 106 -367 16 -42 30
-41 30 3 0 19 2 35 4 35 1 0 17 -5 35 -11 34 -12 37 -19 45 -123 6 -78 8 -74
-101 -203 -60 -72 -97 -138 -89 -160 9 -22 117 -10 242 29 90 27 103 34 118
62 9 17 32 58 51 91 33 56 35 64 29 118 -5 50 -4 56 10 51 13 -5 16 2 16 39
l0 46 33 -10 c17 -5 60 -6 95 -3 l62 7 0 48 c0 26 4 50 9 54 6 3 33 -12 62
-34 l52 -39 -2 -158 -2 -157 -41 -96 c-43 -101 -68 -187 -68 -235 0 -28 1 -28
41 -22 23 4 59 20 82 39 60 47 172 163 224 232 l45 60 -6 108 c-3 59 -5 107
-3 107 2 0 25 -7 50 -16 26 -9 55 -13 64 -10 14 6 14 8 0 24 -23 27 -52 210
-35 227 3 3 15 -17 26 -45 11 -27 25 -50 30 -50 12 0 28 378 25 565 -1 72 -7
190 -14 263 l-11 132 25 34 c44 57 60 108 48 153 -13 46 -13 53 -3 53 11 0 28
-60 37 -128 8 -62 25 -64 40 -4 15 59 23 60 31 5 13 -92 15 -92 71 -22 100
126 163 269 163 369 0 33 3 60 7 60 4 0 18 -10 31 -22 l25 -23 -7 57 c-7 63
-56 181 -107 255 -43 63 -152 176 -212 220 -29 21 -46 41 -43 49 3 7 -10 52
-29 99 -42 105 -59 137 -99 195 -37 54 -56 110 -56 167 0 24 -10 72 -21 107
l-21 64 25 34 c14 18 38 62 53 98 15 36 29 66 30 68 1 2 23 -11 50 -27 26 -17
52 -31 56 -31 29 0 -9 272 -63 452 -12 40 -28 97 -35 127 -26 96 -127 262
-225 366 -28 30 -28 30 -13 80 34 115 14 233 -58 332 -40 56 -108 124 -118
118 -4 -2 -10 -46 -13 -97 -6 -100 -32 -227 -50 -252 -11 -14 -18 -13 -67 11
-46 22 -70 26 -142 27 -90 1 -106 8 -64 27 19 9 28 26 40 73 8 33 27 103 42
154 17 56 24 96 18 101 -5 5 -24 1 -44 -8z m30 -18 c0 -5 -48 -169 -75 -260
-6 -19 -86 -73 -108 -73 -11 0 -49 -19 -84 -42 -38 -24 -68 -37 -73 -32 -5 5
-12 27 -15 50 -6 37 -3 45 43 105 62 81 159 178 202 204 90 54 110 63 110 48z
m337 -126 c64 -83 97 -174 88 -244 -8 -65 -26 -134 -34 -131 -4 2 -48 27 -99
57 -71 41 -91 58 -87 70 16 41 45 183 51 249 4 46 11 71 18 69 6 -2 34 -34 63
-70z m-215 -252 c101 -44 221 -113 277 -161 59 -51 162 -191 205 -277 33 -68
93 -269 130 -437 17 -78 22 -210 8 -210 -19 0 -135 104 -298 265 -121 119
-215 208 -237 224 -25 18 -245 24 -370 11 -51 -6 -131 -13 -179 -17 -67 -4
-88 -9 -88 -20 0 -8 -7 -27 -15 -41 -55 -103 -121 -260 -161 -389 -26 -84 -51
-153 -55 -153 -5 0 -11 17 -14 38 -3 20 -10 56 -16 79 -24 109 -4 266 66 514
74 259 79 270 206 424 60 72 165 152 213 161 11 2 41 8 66 13 25 5 76 9 113
10 58 1 82 -4 149 -34z m-71 -615 c-39 -144 -89 -290 -99 -290 -21 0 -132 246
-132 291 0 11 52 16 150 15 70 -1 84 -4 81 -16z m147 5 c24 -8 12 -26 -30 -45
-24 -11 -53 -20 -65 -20 -13 0 -23 -4 -23 -10 0 -17 37 -11 97 15 l57 26 35
-37 c20 -20 51 -48 70 -63 l34 -26 -7 -150 c-9 -212 -11 -217 -75 -269 -69
-57 -345 -196 -387 -196 -38 0 -127 30 -174 59 -19 11 -41 21 -49 21 -23 0
-138 79 -157 108 -23 34 -31 160 -14 202 14 34 30 40 30 10 0 -11 4 -20 10
-20 5 0 7 20 4 48 -4 27 -1 60 7 77 l12 30 12 -58 c14 -64 37 -97 70 -97 28 0
63 34 71 68 3 15 10 38 14 52 8 23 8 23 9 3 1 -27 21 -41 21 -15 0 11 -3 41
-6 67 l-7 47 -73 -4 c-41 -2 -74 0 -74 4 0 5 9 28 21 52 l20 44 34 -14 c40
-16 99 -20 75 -4 -8 5 -24 10 -36 10 -11 0 -28 6 -38 13 -18 13 -18 15 -2 39
12 18 28 27 59 31 50 7 49 8 94 -117 18 -49 44 -107 59 -129 15 -22 30 -52 33
-66 10 -36 25 -36 40 1 13 31 14 31 18 10 6 -32 25 -22 35 19 12 47 29 89 37
89 3 0 5 -31 3 -70 -3 -67 -2 -71 28 -101 26 -26 36 -30 63 -25 18 3 44 20 60
36 25 28 27 37 27 115 l0 85 31 0 c31 0 31 0 24 -42 -4 -24 -16 -69 -26 -100
-23 -69 -23 -74 -4 -58 15 12 65 161 65 192 0 9 -7 19 -16 22 -22 9 -170 6
-229 -4 -27 -4 -52 -6 -54 -4 -7 6 29 115 46 142 13 20 19 22 61 17 26 -4 53
-8 60 -10z m-538 -23 c0 -4 -6 -16 -14 -27 -11 -17 -75 -151 -147 -310 l-22
-50 -8 60 c-7 59 -7 61 59 198 65 135 67 137 99 137 18 0 33 -3 33 -8z m562
-180 c9 -56 -5 -129 -28 -147 -36 -28 -63 -29 -90 -4 -20 19 -24 32 -24 83 0
106 9 115 100 112 33 -1 35 -3 42 -44z m-502 -34 c0 -93 -38 -153 -84 -135
-18 7 -36 68 -36 124 0 46 5 50 78 52 l42 1 0 -42z m745 -24 l66 -66 -26 -106
c-51 -207 -49 -202 -116 -251 -33 -24 -62 -41 -65 -39 -2 3 2 24 11 47 20 57
45 232 52 368 3 62 8 113 9 113 2 0 33 -30 69 -66z m137 -123 l42 -39 -29 -71
c-19 -49 -50 -97 -93 -147 -35 -42 -66 -74 -68 -72 -2 2 9 49 25 104 16 54 37
136 47 182 10 45 22 82 27 82 4 0 27 -17 49 -39z m-1130 -74 c10 -7 18 -33 21
-67 3 -30 12 -86 20 -125 8 -38 14 -71 12 -73 -2 -2 -22 6 -45 18 -43 22 -72
70 -85 144 -7 33 10 108 37 174 11 27 11 27 18 -16 3 -23 14 -48 22 -55z m840
-224 c-17 -48 -28 -90 -27 -92 2 -2 37 20 77 47 40 28 74 50 75 48 2 -2 -1
-16 -7 -31 -8 -20 -8 -31 1 -39 8 -8 23 2 55 38 l43 50 17 -40 c9 -21 19 -57
22 -79 5 -39 5 -40 -15 -22 -62 54 -344 -24 -527 -146 -46 -31 -60 -36 -67
-26 -13 21 -13 22 57 111 92 115 315 311 322 283 2 -8 -10 -53 -26 -102z
m-223 -70 c-25 -27 -65 -73 -89 -103 -24 -30 -47 -59 -50 -63 -4 -5 -27 5 -51
21 -24 16 -61 35 -81 41 -21 7 -38 14 -38 17 0 10 63 34 120 44 37 7 97 29
139 51 41 21 79 39 85 39 6 0 -10 -21 -35 -47z m-259 -33 c0 -3 -28 -19 -62
-35 -46 -22 -72 -43 -98 -78 -32 -44 -35 -46 -38 -23 -2 13 7 50 20 82 17 42
31 61 56 74 30 16 35 16 77 1 25 -9 45 -18 45 -21z m701 -31 c25 -13 62 -96
55 -124 -3 -12 -25 -31 -53 -46 -39 -19 -64 -24 -133 -25 -114 -2 -179 -15
-355 -74 -82 -28 -151 -50 -153 -50 -1 0 8 15 22 33 13 17 29 44 35 59 5 15
36 44 68 66 176 120 439 202 514 161z m-905 -31 c-4 -13 -9 -45 -12 -73 -3
-27 -7 -65 -10 -83 l-5 -33 -77 3 c-64 3 -77 6 -77 20 0 18 159 188 176 188 7
0 9 -9 5 -22z m221 -43 c53 -24 93 -70 93 -108 0 -28 -37 -93 -65 -116 -15
-11 -72 -63 -127 -115 -55 -53 -105 -96 -110 -96 -11 0 -46 76 -54 117 -6 30
20 151 39 188 6 11 12 25 13 32 3 16 40 70 72 105 29 31 55 30 139 -7z m798
-128 c33 -49 111 -225 103 -232 -7 -7 -172 67 -222 99 -28 19 -68 51 -89 72
l-39 38 60 12 c61 12 116 36 127 54 12 19 25 10 60 -43z m-219 -76 c51 -48
100 -82 161 -112 148 -72 325 -216 419 -339 33 -44 99 -183 109 -230 8 -38 12
-40 -60 19 -50 40 -167 88 -245 100 -42 7 -83 19 -93 29 -11 9 -33 44 -49 76
-42 84 -89 144 -216 279 -112 119 -132 152 -132 220 0 43 25 33 106 -42z
m-122 15 c4 -24 15 -59 24 -77 14 -28 16 -54 12 -154 -4 -104 -7 -120 -22
-123 -14 -3 -18 4 -18 30 0 42 -19 111 -33 120 -12 7 -95 -16 -110 -31 -18
-18 -30 -13 -24 9 8 31 -25 42 -117 41 -106 -1 -139 -11 -146 -42 -5 -22 -11
-24 -83 -29 -59 -5 -80 -10 -90 -25 -12 -16 -18 -17 -47 -7 -18 7 -48 12 -66
12 -31 0 -32 -2 -39 -50 -4 -27 -11 -50 -15 -50 -18 0 -20 59 -5 128 8 41 15
87 15 103 0 46 21 31 37 -27 15 -49 47 -94 67 -94 6 0 52 39 101 86 l90 85
180 59 c164 54 241 76 271 79 7 1 15 -19 18 -43z m-725 -8 c-4 -18 -10 -44
-13 -58 -5 -25 -7 -25 -86 -22 -44 2 -80 8 -80 13 0 26 32 80 52 89 13 5 48 9
80 9 l56 1 -9 -32z m-62 -155 c-3 -32 -11 -107 -16 -167 l-11 -110 -53 -52
c-82 -81 -148 -153 -217 -237 -36 -43 -66 -73 -68 -67 -7 19 127 268 203 379
71 105 93 158 110 269 6 37 10 42 32 42 25 0 25 -1 20 -57z m1065 -206 c27
-37 51 -79 53 -95 2 -15 10 -61 19 -102 8 -41 24 -118 35 -170 11 -52 23 -130
27 -174 l7 -79 -34 7 c-19 3 -66 9 -106 12 l-71 7 -12 46 c-6 25 -31 100 -54
166 -24 66 -51 152 -59 190 -25 111 -41 283 -32 359 l7 69 85 -84 c46 -46 107
-114 135 -152z m-504 167 c50 -10 50 -38 0 -93 -23 -27 -50 -58 -58 -69 -11
-15 -30 -21 -68 -25 -50 -4 -54 -3 -64 22 -10 25 -5 137 6 148 16 17 133 27
184 17z m193 -45 c4 -13 7 -45 8 -70 1 -45 0 -47 -31 -52 -82 -14 -208 -19
-208 -8 0 32 120 134 180 152 35 10 43 6 51 -22z m-403 -84 l3 -60 -86 3 -85
3 0 29 c0 71 27 89 125 86 l40 -1 3 -60z m-213 23 c20 -9 25 -18 25 -45 l0
-34 -57 3 c-55 3 -58 4 -61 31 -2 16 -1 35 2 43 7 17 55 18 91 2z m690 -114
c3 -26 2 -51 -3 -56 -5 -5 -39 -13 -75 -19 l-67 -10 -60 37 c-71 43 -98 43
-196 -6 -50 -24 -70 -29 -101 -24 -22 3 -56 1 -77 -4 -32 -9 -41 -8 -71 12
-47 32 -96 40 -139 22 -41 -17 -46 -14 -46 33 l0 36 348 1 c196 1 367 6 392
12 83 19 87 17 95 -34z m-227 -58 c20 -13 46 -33 56 -45 19 -21 19 -21 0 -42
-14 -15 -19 -37 -20 -80 -1 -55 -3 -61 -32 -83 -18 -13 -49 -44 -69 -69 l-37
-46 -46 35 c-25 19 -64 49 -87 66 -37 27 -43 37 -43 68 0 21 13 63 30 97 26
51 37 63 82 85 93 46 113 48 166 14z m-613 -16 c3 -11 4 -24 0 -30 -3 -5 -7
-56 -10 -112 -2 -67 -11 -125 -24 -166 -12 -35 -21 -72 -21 -83 0 -20 -20 -24
-90 -19 -56 3 -60 11 -40 93 46 195 62 237 108 288 47 53 67 60 77 29z m148 7
c52 -22 60 -38 42 -82 -10 -23 -15 -59 -13 -97 2 -48 -1 -61 -14 -69 -10 -5
-38 -25 -63 -44 -25 -19 -49 -35 -55 -35 -22 0 -44 159 -34 249 6 53 11 64 33
76 33 18 63 19 104 2z m711 -57 c7 -44 37 -141 83 -265 17 -44 33 -97 37 -117
4 -21 14 -44 22 -52 13 -14 13 -22 -2 -72 -19 -67 -15 -148 10 -172 16 -16 18
-16 31 2 8 11 22 44 30 74 l16 55 25 -25 25 -25 -34 -59 c-46 -79 -53 -102
-32 -111 10 -3 31 2 47 11 16 10 31 16 33 14 2 -1 9 -106 15 -233 10 -175 10
-270 1 -395 -6 -91 -11 -181 -11 -200 0 -43 -8 -34 -55 57 -45 91 -136 198
-179 214 -22 8 -45 30 -70 68 -71 108 -113 160 -162 199 -27 21 -54 45 -61 53
-6 8 -55 37 -109 64 -101 52 -134 85 -134 135 0 35 45 189 75 257 31 69 31 73
-1 168 -14 42 -24 78 -22 81 2 2 22 -8 43 -23 l39 -26 15 22 c35 50 86 103
113 117 15 8 28 12 28 9 0 -4 5 -3 10 0 6 4 3 16 -10 32 -11 14 -20 32 -20 39
0 26 34 84 53 90 14 4 16 9 8 17 -20 20 -11 27 37 28 26 0 56 4 67 8 27 11 31
7 39 -39z m-497 13 c-3 -10 -16 -43 -29 -73 -21 -49 -26 -55 -53 -55 -17 1
-36 4 -43 9 -7 4 -19 2 -27 -4 -13 -11 -15 -7 -15 26 1 75 43 112 129 113 37
1 43 -2 38 -16z m881 -52 c20 -5 58 -12 83 -16 51 -7 196 -72 217 -98 9 -10
14 -42 14 -85 0 -106 -66 -255 -166 -376 l-23 -28 -6 33 c-3 19 -9 53 -12 77
-9 55 -26 50 -44 -14 l-13 -49 -18 69 c-9 37 -22 71 -27 74 -6 4 -14 41 -18
82 -3 41 -20 140 -36 219 -35 173 -35 182 -8 148 11 -15 37 -31 57 -36z
m-1433 -177 c-19 -76 -35 -148 -35 -158 0 -31 -16 -7 -33 49 -33 106 -34 103
34 183 33 40 63 71 65 69 2 -2 -12 -66 -31 -143z m430 64 c-4 -13 -13 -33 -21
-45 -8 -12 -28 -57 -45 -100 -17 -43 -37 -85 -46 -93 -14 -14 -15 -11 -10 24
8 52 97 236 115 236 9 0 11 -7 7 -22z m75 -60 c12 -40 38 -103 56 -140 19 -37
30 -69 26 -72 -20 -12 -91 81 -116 152 -29 82 -31 103 -14 120 20 20 24 15 48
-60z m122 -134 c36 -108 36 -109 18 -144 -9 -19 -28 -68 -41 -107 -20 -61 -29
-74 -54 -85 -39 -15 -93 -62 -128 -110 l-27 -39 -36 68 c-19 38 -46 79 -60 94
-28 30 -29 39 -9 155 11 61 21 91 34 100 10 7 24 28 32 46 7 18 26 62 42 98
l29 65 29 -80 c21 -57 41 -92 71 -122 46 -47 59 -51 78 -28 11 13 6 29 -28 98
-23 45 -45 98 -49 117 l-6 35 34 -26 c28 -22 40 -44 71 -135z m-403 52 c5 -4
30 10 56 30 26 19 49 34 51 32 2 -2 -8 -32 -22 -66 -13 -34 -24 -78 -23 -99 1
-21 -6 -83 -16 -137 -15 -84 -16 -102 -5 -120 9 -13 15 -65 18 -139 l5 -119
-37 -37 -36 -37 8 -285 c4 -156 7 -286 6 -287 -3 -4 -36 103 -58 192 -32 122
-40 232 -40 571 -1 291 2 353 18 429 10 49 23 101 28 115 l10 26 14 -32 c7
-17 18 -34 23 -37z m-158 -86 c31 0 22 -21 -28 -67 l-46 -44 21 -62 c33 -94
28 -121 -15 -74 -29 31 -63 102 -63 129 0 38 12 68 25 68 8 0 16 14 20 31 6
28 10 31 37 25 17 -3 39 -6 49 -6z m56 -52 c-7 -56 -17 -68 -60 -68 -18 0 -26
-4 -21 -11 4 -7 21 -9 40 -6 l34 6 0 -55 c0 -54 -16 -75 -27 -34 -3 11 -9 20
-14 20 -15 0 -10 -26 11 -53 22 -28 26 -57 9 -57 -15 0 -38 31 -39 51 0 9 -9
44 -21 78 l-20 63 45 48 c26 27 46 54 46 60 0 5 5 10 11 10 8 0 10 -16 6 -52z
m1219 -19 c48 -12 58 -24 69 -80 5 -28 1 -47 -18 -85 -30 -59 -93 -134 -112
-134 -18 0 -12 17 32 92 35 60 35 77 -1 108 -9 7 -16 21 -16 31 0 11 -4 19 -9
19 -9 0 -20 -25 -46 -107 -9 -29 -20 -53 -25 -53 -24 0 -27 93 -5 168 15 50
17 52 51 52 19 0 55 -5 80 -11z m-1317 -219 c9 0 22 -5 29 -12 13 -13 16 -48
5 -48 -20 1 -113 105 -113 126 1 5 14 -8 31 -28 17 -21 39 -38 48 -38z m541
-56 c-22 -58 -7 -114 44 -155 20 -16 20 -17 -10 -74 -35 -69 -155 -204 -235
-263 -65 -48 -63 -44 -88 -177 -11 -53 -21 -98 -23 -101 -3 -2 -8 110 -11 250
l-7 254 36 36 36 36 -4 105 c-2 58 -1 105 3 105 9 0 58 -102 65 -137 6 -29 24
-47 24 -25 0 17 82 118 117 145 48 35 66 36 53 1z m133 -204 c34 -20 35 -21
42 -112 8 -112 35 -201 76 -257 25 -35 32 -57 38 -120 10 -92 19 -111 65 -136
30 -16 36 -25 36 -52 0 -17 -4 -34 -9 -37 -5 -3 -32 15 -59 40 l-51 45 -15
-30 c-9 -17 -16 -46 -16 -65 l0 -34 -58 -7 c-92 -10 -106 0 -121 87 -8 40 -24
103 -37 139 -28 78 -32 202 -10 359 12 92 53 200 76 200 5 0 24 -9 43 -20z
m137 -89 c70 -57 156 -160 203 -242 14 -26 33 -43 55 -50 18 -6 48 -30 68 -53
l35 -42 3 -307 4 -307 -27 -36 c-82 -113 -260 -274 -303 -274 -19 0 -20 4 -14
53 4 28 29 104 56 167 45 107 48 120 43 180 -4 60 20 421 33 498 4 18 2 32 -4
32 -5 0 -13 -24 -16 -52 -13 -98 -14 -100 -47 -83 -38 20 -46 37 -51 122 -5
62 -10 80 -41 125 -20 29 -42 77 -51 106 -15 52 -33 222 -24 222 3 0 38 -27
78 -59z m-282 -169 c-9 -100 -13 -120 -25 -111 -21 18 -16 -7 26 -129 42 -119
65 -233 59 -293 l-3 -37 -40 19 c-22 11 -69 47 -105 82 -125 121 -176 209
-165 282 13 80 25 103 78 143 29 21 81 69 116 105 36 37 66 66 67 64 2 -2 -2
-58 -8 -125z m702 -302 c15 -28 20 -59 20 -112 0 -40 7 -102 14 -138 8 -36 13
-66 12 -67 -1 -1 -20 7 -44 17 l-42 19 0 161 c0 98 4 160 10 160 5 0 19 -18
30 -40z m-910 -110 c0 -45 0 -46 -40 -25 -28 15 -30 19 -30 74 0 92 8 100 41
42 19 -33 29 -65 29 -91z m60 -31 c0 -6 133 -115 163 -134 10 -6 18 -31 22
-70 6 -58 5 -62 -41 -140 -26 -44 -49 -81 -50 -83 -1 -2 -42 -17 -91 -33 -83
-28 -223 -50 -223 -35 0 19 39 79 100 151 102 122 99 117 90 215 -5 47 -9 108
-9 135 l-1 50 20 -25 c11 -14 20 -28 20 -31z"/>
</g>
</svg>
