<?xml version="1.0" standalone="yes"?>
<svg xmlns="http://www.w3.org/2000/svg" width="218" height="512">
<path style="stroke:#010101; fill:none;" d="M61 48C55.624 28.8695 80.0917 10.625 96 4C97.4274 12.8759 91.045 32.1263 83.9954 37.6968C75.593 44.3362 65.0583 45.6828 57.0895 54.0146C51.8937 59.4472 46.3504 65.5334 42.4784 72C37.8341 79.7565 36.0258 89.3954 33.5725 98C27.446 119.488 19.25 145.613 30 167M83 39L100 40.4676L115 46L122 10C130.386 16.5249 139.66 28.7859 139.541 40C139.484 45.3223 135.255 54.305 137.073 59C139.963 66.4645 148.623 73.0647 152.934 80C162.112 94.7624 166.418 113.091 169.8 130C171.373 137.861 173.331 146.114 171 154L150 138C147.062 147.289 139.087 166.888 142 176C152.486 168.593 155.047 157.851 162 148M116 47L134 58M102 104C100.495 114.189 98.6926 128.726 90 135L76 105C85.3767 102.035 105.876 100.022 115 104.356C119.18 106.343 121.874 110.486 125.17 113.561C128.495 116.663 133.234 119.12 134.003 124.004C135.952 136.386 132.327 150.722 130.75 163C130.059 168.382 127.5 172.877 130 178L140 172M40 140C46.0448 150.732 48.8982 166.706 49 179C23.233 171.559 38.5872 137.574 46.9722 122C49.3614 117.562 50.6814 110.972 54.6127 107.603C58.4959 104.276 69.8572 104.651 75 104M118 107L104 113M63 108C61.7918 113.711 67.2486 114.753 72 115M61 112L43 147M117 120C113.199 120 106.486 118.973 103.889 122.514C100.447 127.207 102.53 141.692 109.015 143.029C122.872 145.887 115.774 125.168 119.889 120.694C126.566 113.433 125.49 129.639 124.842 132C124.09 134.739 123.019 137.354 122 140M57 125C65.6778 122.369 70.15 125.142 72 134M99 123L102 123M135 124L149 137M55 128C55.1301 143.722 66.804 146.991 69 130M96 132L96 136M90 135L90 137M50 140L51 143M169 313C164.309 313.055 151.013 312.34 147.514 309.258C143.405 305.638 142.136 295.131 140.308 290C133.4 270.607 125.855 246.598 132 226C141.919 232.987 153.873 244.766 158.93 256C168.732 277.776 168.076 305.223 175 328L179 321L183 332C197.854 319.985 198.443 304.558 203.317 288.183C204.157 285.359 207.562 285.187 207.667 281.927C207.856 276.017 202.772 267.779 199.641 263C195.533 256.729 190.552 250.438 184.961 245.428C180.964 241.847 174.6 238.632 171.911 233.91C170.116 230.757 170.505 226.438 169.135 223C165.866 214.799 161.061 207.82 157.184 200C154.806 195.201 154.059 189.006 148.956 186.164C137.311 179.68 116.313 190.922 106 196.258C102.65 197.992 96.2294 204.008 92.3225 203.119C86.6127 201.819 95.8732 191.656 97.1998 190C106.081 178.915 116.875 167.012 130 161M33 162L30 165M50 168C59.6399 173.367 74.4201 185.018 86 183.811C94.7899 182.895 101.256 175.896 110 175M149 170C152.04 175.248 154.647 181.997 153 188M140 176L143 176M127 177L129 178M69 178C62.8971 183.377 55.7073 190.699 61 199L79 184M49 179L51 181M170 232C160.767 228.308 150.758 223.847 143 217.532C138.775 214.094 134.983 207.17 128.996 207.228C117.09 207.345 105.097 212.989 94 216.667C89.5275 218.149 84.0088 218.317 80 220.808C74.9242 223.962 66.3726 237.661 60.0154 236.963C49.6375 235.824 54.5406 215.773 55 210C51.2595 210 43.5434 211.45 40.7616 208.397C35.4415 202.556 54.7577 187.952 60 187M72 189L90 200M58 198L61 199M156 200C149.147 204.978 143.427 206.994 135 207M58 202L55 210M91 204L84 217M127 209L131 225M40 210C30.9384 222.84 40.5058 223.688 52 223M42 224C40.431 243.716 27.1478 257.207 18.3627 274C14.8471 280.72 9.30555 288.155 10 296L36.3789 266.015L45.436 256.816L49 224M84 252C83.5988 246.917 81.1617 238.803 85.564 234.742C89.0817 231.496 105.167 229.757 107.418 235.314C109.027 239.285 99.4799 250.696 95.8704 252.258C82.8055 257.91 60.9088 251.627 47 252M109 238C112.432 237.021 119.012 232.864 122.272 235.694C126.419 239.293 122.388 249.116 129 249M65 252C65.0352 239.745 72.1835 239.007 83 239M51 251C51.2453 240.858 57.0059 242.173 65 244M125 249L100 253M88 293C85.2296 289.246 78.5585 286.027 78.3781 280.985C77.7688 263.959 101.529 250.11 113.624 264.515C116.512 267.953 112.801 271.434 112.035 275C109.457 287.015 102.898 299.209 89 294C89.9459 300.405 94.656 307.501 93.5694 314C91.8046 324.556 79.6349 338.947 85.179 349.999C89.2536 358.122 100.156 360.388 107 365.404C118.474 373.813 124.375 384.546 133.529 394.867C137.493 399.337 143.041 400.49 146.221 406.004C150.634 413.658 147.996 427.343 148 436C148.002 440.905 147.751 446.953 153.946 448.048C159.447 449.02 157.257 441.902 156.664 439C154.823 429.98 158.347 416.304 149 411M45 259L50 296L62 289C59.0973 301.249 51.7771 318.168 54.5139 330.999C55.9958 337.947 62.9938 345.26 66 352L85 336M49 262C57.9138 258.24 60.8652 263.913 69 264.818C74.1791 265.394 78.6997 263.433 84 265M116 264L131 262M164 265C173.181 276.392 192.236 272.34 203 284M69 266C65.5387 270.678 64.3463 275.353 66 281L76 280M32 275C29.0839 287.605 18.5283 309.224 41 304C40.3343 336.252 35.3865 370.117 43.1296 402C45.1345 410.255 48.1093 430.479 58.9421 431.392C68.8402 432.226 57.9507 414.732 56 412L52 418C48.27 405.381 47.0926 380.888 50.3179 368C51.4743 363.379 56.1521 360.847 56.848 356C57.6618 350.332 56 343.796 56 338M72 281C69.5766 291.289 76.2872 306.433 86 311L78 286M65 282L62 289M70 287L59 308M45 290L42 303M18 291C18.2332 296.104 19.2641 304.386 24 307L25 304M59 291L61 293M10 296L7 300M37 307L28.8125 317.039L30 334C21.2785 327.329 18.7375 319.292 22 309M149 311C147.074 319.402 143.818 327.15 149 335L155 321C164.482 329.417 152.914 334.567 154 344C166.451 337.777 169.69 326.549 168 314M32 318L39 318M21 327C23.2966 333.572 27.5301 337.832 33 342C35.0557 337.946 33.8997 336.327 31 333M35 327L37 331M175 328L175 331M36 338L38 338M162 341L164 397L162 429L156 424M91 357C83.715 380.021 56.2092 386.727 56 412M102 363C102 379.31 107.496 388.3 112.867 403C114.613 407.779 112.913 413.385 115.318 417.906C117.185 421.416 122.017 422.415 123.354 426.13C126.764 435.603 122.368 453.628 122.61 464C122.814 472.706 115.736 481.67 113.489 490C112.794 492.579 110.95 497.982 113.032 500.302C116.563 504.24 127.546 493.184 130 490.91C136.49 484.895 146.847 476.128 148.721 467C150.067 460.447 148.135 453.563 148 447M85 374C83.7972 383.517 81.2423 394.429 82.1998 404C82.8434 410.432 86.4332 416.632 87.7894 423C88.771 427.609 92.477 438.342 88.983 442.434C86.794 444.997 82.9681 442.108 81 440.706C74.7119 436.227 69.6903 431.063 65 425M125 409L124 422M52 418L52 423M92 437C104.075 440.988 106.321 435.321 111 426L122 433M53 430L54 437M63 433C63.8522 439.743 66.2114 448.93 62.3827 455C59.0401 460.3 43.7026 472.621 46.4182 479.678C48.3249 484.633 62.515 479.459 66 478.525C82.066 474.224 87.66 460.372 87 445"/>
</svg>
